<?xml version="1.0" encoding="UTF-8"?>
<svg width="700pt" height="700pt" version="1.1" viewBox="0 0 700 550" xmlns="http://www.w3.org/2000/svg" xmlns:xlink="http://www.w3.org/1999/xlink">
 <g>
  <path d="m557.2 24h-416c-26.398 0-48 21.602-48 48v416c0 26.398 21.602 48 48 48h416c26.398 0 48-21.602 48-48v-416c0-26.398-21.598-48-48-48zm-344 480h-72c-8.8008 0-16-7.1992-16-16v-300h88zm360-16c0 8.8008-7.1992 16-16 16h-312v-316h328zm0-332h-448v-84c0-8.8008 7.1992-16 16-16h416c8.8008 0 16 7.1992 16 16z"/>
 </g>
</svg>
