<?xml version="1.0" encoding="UTF-8"?>
<svg fill="#ccc" width="34" height="34" version="1.1" viewBox="0 0 700 700" xmlns="http://www.w3.org/2000/svg" xmlns:xlink="http://www.w3.org/1999/xlink">
 <g>
  <path d="m637.73 270.72h-553.07l254.57-254.88c1.8398-1.7148 2.9062-4.1094 2.9531-6.625 0.042969-2.5195-0.9375-4.9453-2.7188-6.7266s-4.207-2.7617-6.7266-2.7188c-2.5195 0.042969-4.9102 1.1094-6.6289 2.9531l-270.41 270.72c-0.875 0.86328-1.5703 1.8945-2.043 3.0312-0.4375 1.082-0.66797 2.2383-0.67969 3.4023 0.011719 1.168 0.24219 2.3242 0.67969 3.4062 0.47266 1.1328 1.168 2.1641 2.043 3.0312l270.41 270.72h-0.003907c1.7188 1.8398 4.1094 2.9062 6.6289 2.9531 2.5195 0.042969 4.9453-0.9375 6.7266-2.7188s2.7617-4.2109 2.7188-6.7266c-0.046875-2.5195-1.1133-4.9102-2.9531-6.6289l-254.57-254.63h553.07c5.125 0 9.2812-4.1562 9.2812-9.2812s-4.1562-9.2812-9.2812-9.2812z"/>
 </g>
</svg>
