<?xml version="1.0" encoding="UTF-8"?>
<svg width="700pt" height="700pt" version="1.1" viewBox="0 0 700 650" xmlns="http://www.w3.org/2000/svg" xmlns:xlink="http://www.w3.org/1999/xlink">
 <g>
  <path d="m387.07 197.01 125.33 0.83984 0.83984-127.01h-11.199l-0.44531 107.8c-17.328-20.504-38.914-36.984-63.254-48.301-24.344-11.316-50.855-17.191-77.699-17.219-49.875 0-97.703 19.812-132.97 55.078-35.27 35.266-55.078 83.094-55.078 132.97s19.809 97.703 55.078 132.97c35.266 35.266 83.094 55.078 132.97 55.078 34.055-0.050782 67.438-9.4844 96.48-27.266 29.047-17.781 52.629-43.227 68.16-73.535l-9.9688-5.1523v0.003906c-14.59 28.477-36.742 52.387-64.027 69.102-27.285 16.715-58.648 25.586-90.645 25.648-46.902 0-91.887-18.633-125.05-51.797-33.164-33.164-51.797-78.148-51.797-125.05 0-46.902 18.633-91.887 51.797-125.05 33.164-33.164 78.148-51.797 125.05-51.797 25.367 0.023438 50.422 5.6055 73.402 16.355 22.977 10.746 43.32 26.402 59.598 45.859l-106.4-0.72656zm114.52-16.406v5.9922h-7.1094z"/>
 </g>
</svg>
