<?xml version="1.0" encoding="UTF-8"?>
<svg width="34" height="34" version="1.1" viewBox="0 0 700 650" xmlns="http://www.w3.org/2000/svg" xmlns:xlink="http://www.w3.org/1999/xlink">
 <g>
  <path d="m346.68 40.25-224 168c-1.418 1.0469-2.2891 2.7891-2.2734 4.5508v302.4c0 2.9336 2.668 5.5977 5.6016 5.6016h151.2c2.9336 0 5.5977-2.668 5.6016-5.6016v-184.79h134.4v184.79c0 2.9336 2.668 5.5977 5.6016 5.6016h151.2c2.9336 0 5.5977-2.668 5.6016-5.6016v-302.4c0-1.7617-0.85938-3.5039-2.2734-4.5508l-224-168c-2.7422-1.8086-5.7305-0.91797-6.6523 0zm3.3242 11.375 218.4 163.8v294.18h-140v-184.79c0-2.9336-2.668-5.6016-5.6016-5.6016h-145.6c-2.9336 0-5.5977 2.668-5.6016 5.6016v184.79h-140v-294.18z"/>
 </g>
</svg>
