<?xml version="1.0" encoding="UTF-8"?>
<svg fill="#ccc" width="34" height="34" version="1.1" viewBox="0 0 700 700" xmlns="http://www.w3.org/2000/svg" xmlns:xlink="http://www.w3.org/1999/xlink">
 <g>
  <path d="m646.34 283.53c0.42969-1.0625 0.66016-2.1953 0.67969-3.3398-0.019531-1.1484-0.25-2.2812-0.67969-3.3438-0.47266-1.1367-1.1641-2.168-2.043-3.0312l-270.41-271.09c-3.6602-3.4062-9.3594-3.3086-12.891 0.22656-3.5352 3.5352-3.6367 9.2344-0.23047 12.891l254.57 254.88h-553.07c-5.125 0-9.2812 4.1562-9.2812 9.2812s4.1562 9.2812 9.2812 9.2812h553.07l-254.57 254.88c-1.8398 1.7148-2.9062 4.1094-2.9531 6.625-0.042969 2.5195 0.9375 4.9453 2.7188 6.7266s4.207 2.7617 6.7266 2.7188c2.5195-0.042969 4.9102-1.1094 6.6289-2.9531l270.41-270.72h-0.003906c0.87891-0.86328 1.5703-1.8945 2.043-3.0312z"/>
 </g>
</svg>
