<?xml version="1.0" encoding="UTF-8"?>
<svg fill="#5F6368" width="700pt" height="700pt" version="1.1" viewBox="0 0 700 700" xmlns="http://www.w3.org/2000/svg">
 <path d="m589.93 267.57-52.5-52.5-150.32-150.15c-9.9961-9.543-23.281-14.867-37.102-14.867s-27.105 5.3242-37.102 14.867l-150.32 150.15-52.5 52.5c-3.8555 4.5078-5.1719 10.66-3.4883 16.348 1.6797 5.6875 6.1289 10.137 11.816 11.816 5.6914 1.6836 11.844 0.37109 16.348-3.4883l22.75-22.574v202.82c0 13.926 5.5312 27.277 15.375 37.125 9.8477 9.8438 23.199 15.375 37.125 15.375h280c13.926 0 27.277-5.5312 37.125-15.375 9.8438-9.8477 15.375-23.199 15.375-37.125v-202.82l22.574 22.574c4.5078 3.8594 10.66 5.1719 16.348 3.4883 5.6875-1.6797 10.137-6.1289 11.816-11.816 1.6836-5.6875 0.37109-11.84-3.4883-16.348zm-82.426 204.93c0 4.6406-1.8438 9.0938-5.125 12.375s-7.7344 5.125-12.375 5.125h-280c-4.6406 0-9.0938-1.8438-12.375-5.125s-5.125-7.7344-5.125-12.375v-237.82l145.07-145.07c3.2812-3.2617 7.7148-5.0898 12.34-5.0898 4.6211 0 9.0586 1.8281 12.336 5.0898l145.25 145.07z"/>
</svg>
