<?xml version="1.0" encoding="UTF-8"?>
<svg style="fill: #494949;" width="700pt" height="700pt" version="1.1" viewBox="0 0 700 700" xmlns="http://www.w3.org/2000/svg">
 <path d="m589.93 398.82-64.926-64.75v-115.32c0-46.414-18.438-90.926-51.258-123.74-32.816-32.82-77.328-51.258-123.74-51.258s-90.926 18.438-123.74 51.258c-32.82 32.816-51.258 77.328-51.258 123.74v115.32l-64.926 64.75c-2.4258 2.4609-4.0742 5.5859-4.7266 8.9805-0.65234 3.3945-0.28906 6.9102 1.0508 10.094 1.3125 3.1992 3.543 5.9336 6.4102 7.8633 2.8633 1.9297 6.2383 2.9727 9.6914 2.9883h131.25v17.5c0 18.566 7.375 36.371 20.504 49.496 13.125 13.129 30.93 20.504 49.496 20.504h52.5c18.566 0 36.371-7.375 49.496-20.504 13.129-13.125 20.504-30.93 20.504-49.496v-17.5h131.25c3.4531-0.015625 6.8281-1.0586 9.6914-2.9883 2.8672-1.9297 5.0977-4.6641 6.4102-7.8633 1.3398-3.1836 1.7031-6.6992 1.0508-10.094-0.65234-3.3945-2.3008-6.5195-4.7266-8.9805zm-178.68 47.426c0 9.2812-3.6875 18.184-10.25 24.75-6.5664 6.5625-15.469 10.25-24.75 10.25h-52.5c-9.2812 0-18.184-3.6875-24.75-10.25-6.5625-6.5664-10.25-15.469-10.25-24.75v-17.5h122.5zm17.5-52.5h-264.07l40.25-40.074c3.2734-3.3047 5.1016-7.7734 5.0742-12.426v-122.5c0-50.016 26.684-96.234 70-121.24 43.316-25.012 96.684-25.012 140 0 43.316 25.008 70 71.227 70 121.24v122.5c-0.027344 4.6523 1.8008 9.1211 5.0742 12.426l40.25 40.074z"/>
</svg>
