<?xml version="1.0" encoding="UTF-8"?>
<svg style="fill: #494949;" width="700pt" height="700pt" version="1.1" viewBox="0 0 700 700" xmlns="http://www.w3.org/2000/svg" xmlns:xlink="http://www.w3.org/1999/xlink">
 <g>
  <path d="m437.86 200.26-121.41 121.35-54.32-54.32c-7-7-18.426-7-25.426 0s-7 18.426 0 25.426l67.031 67.031c3.5273 3.5273 8.1211 5.2656 12.711 5.2656 4.5938 0 9.1836-1.7344 12.711-5.2656l134.12-134.07c7-7 7-18.426 0-25.426-7.0586-7.0547-18.426-7.0547-25.426 0.003906z"/>
  <path d="m350 56c-123.54 0-224 100.46-224 224s100.46 224 224 224 224-100.46 224-224-100.46-224-224-224zm0 412.05c-103.66 0-188.05-84.336-188.05-188.05s84.391-188.05 188.05-188.05 188.05 84.336 188.05 188.05-84.391 188.05-188.05 188.05z"/>
 </g>
</svg>
