<?xml version="1.0" encoding="UTF-8"?>
<svg style="fill: #494949;" width="700pt" height="700pt" version="1.1" viewBox="0 0 700 700" xmlns="http://www.w3.org/2000/svg" xmlns:xlink="http://www.w3.org/1999/xlink">
 <g>
  <path d="m693.99 36.953c0-16.426-13.441-29.867-29.867-29.867h-627.2c-16.426 0-29.867 13.441-29.867 29.867v388.27c0 16.43 13.441 29.867 29.867 29.867h627.2c16.426 0 29.867-13.438 29.867-29.867zm-59.734 358.4h-567.46v-328.54h567.46zm-108.27 134.4c0 16.426-13.441 29.867-29.867 29.867h-291.2c-16.426 0-29.867-13.441-29.867-29.867 0-16.426 13.441-29.867 29.867-29.867h290.46c17.172 0 30.609 13.441 30.609 29.867z"/>
 </g>
</svg>
