<?xml version="1.0" encoding="UTF-8"?>
<svg style="fill: #494949;" width="700pt" height="700pt" version="1.1" viewBox="0 0 700 700" xmlns="http://www.w3.org/2000/svg" xmlns:xlink="http://www.w3.org/1999/xlink">
 <g>
  <path d="m308.12 181.65c4.375-1.5664 6.6562-6.3789 5.0977-10.758s-6.3672-6.668-10.746-5.1211c-42.324 15.062-75.004 49.285-88.094 92.258s-5.0391 89.605 21.699 125.7c26.738 36.094 69 57.383 113.92 57.383s87.184-21.289 113.92-57.383c26.738-36.098 34.789-82.73 21.699-125.7s-45.77-77.195-88.094-92.258c-2.1055-0.75391-4.4258-0.64062-6.4492 0.31641-2.0234 0.96094-3.582 2.6836-4.332 4.793s-0.63281 4.4297 0.33203 6.4492c0.96094 2.0234 2.6875 3.5781 4.8008 4.3203 37.289 13.27 66.082 43.426 77.617 81.289s4.4414 78.953-19.117 110.76c-23.559 31.805-60.797 50.562-100.38 50.562s-76.82-18.758-100.38-50.562c-23.559-31.805-30.652-72.895-19.117-110.76s40.328-68.02 77.621-81.289z"/>
  <path d="m358.43 253.23v-125.96c0-4.6562-3.7734-8.4297-8.4297-8.4297s-8.4297 3.7734-8.4297 8.4297v125.96c0 4.6523 3.7734 8.4258 8.4297 8.4258s8.4297-3.7734 8.4297-8.4258z"/>
 </g>
</svg>
