<?xml version="1.0" encoding="UTF-8"?>
<svg style="fill: #494949;" width="700pt" height="700pt" version="1.1" viewBox="0 0 700 700" xmlns="http://www.w3.org/2000/svg">
 <g>
  <path d="m560.02 472.5h-420.02c-19.293 0-34.992-15.688-34.992-34.984v-87.516c0-9.6719 7.8359-17.5 17.5-17.5h455c9.6719 0 17.5 7.8281 17.5 17.5v87.516c0 19.297-15.688 34.984-34.984 34.984zm-420.02-105v70.016l420.04-0.015625-0.035156-70z"/>
  <path d="m122.49 367.5c-4.4766 0-8.9531-1.7109-12.371-5.1289-6.8359-6.8359-6.8359-17.91 0-24.746l69.992-70c3.2773-3.2773 7.7305-5.125 12.371-5.125h105.02c9.6641 0 17.5 7.8281 17.5 17.5s-7.8359 17.5-17.5 17.5h-97.77l-64.863 64.871c-3.4219 3.418-7.8984 5.1289-12.375 5.1289z"/>
  <path d="m577.48 367.5c-4.4766 0-8.9531-1.7109-12.371-5.1289l-64.875-64.871h-45.238c-9.6719 0-17.5-7.8281-17.5-17.5s7.8281-17.5 17.5-17.5h52.484c4.6484 0 9.0898 1.8477 12.371 5.1289l70 70c6.8359 6.8359 6.8359 17.91 0 24.746-3.418 3.4141-7.8945 5.125-12.371 5.125z"/>
  <path d="m175.51 420c-9.6641 0-17.586-7.8281-17.586-17.5s7.75-17.5 17.414-17.5h0.17188c9.6719 0 17.5 7.8281 17.5 17.5s-7.8281 17.5-17.5 17.5z"/>
  <path d="m279.99 420h-52.5c-9.6641 0-17.5-7.8281-17.5-17.5s7.8359-17.5 17.5-17.5h52.5c9.6641 0 17.5 7.8281 17.5 17.5s-7.8359 17.5-17.5 17.5z"/>
  <path d="m349.99 297.5c-9.6641 0-17.5-7.8281-17.5-17.5s7.8359-17.5 17.5-17.5c38.598 0 69.992-31.395 69.992-70s-31.395-70-69.992-70c-38.598 0-70 31.395-70 70 0 9.6719-7.8359 17.5-17.5 17.5-9.6641 0-17.5-7.8281-17.5-17.5 0-57.902 47.098-105 105-105 57.891 0 104.99 47.098 104.99 105s-47.102 105-104.99 105z"/>
  <path d="m262.49 245c-4.4766 0-8.9531-1.7109-12.371-5.1289l-35-35c-6.8359-6.8359-6.8359-17.91 0-24.746 6.8359-6.8359 17.91-6.8359 24.746 0l22.629 22.629 22.629-22.629c6.8359-6.8359 17.91-6.8359 24.746 0 6.8359 6.8359 6.8359 17.91 0 24.746l-35 35c-3.4258 3.418-7.9023 5.1289-12.379 5.1289z"/>
 </g>
</svg>
