<?xml version="1.0" encoding="UTF-8"?>
<svg style="transform: scaleX(-1); fill: #494949;" width="700pt" height="700pt" version="1.1" viewBox="0 0 700 700" xmlns="http://www.w3.org/2000/svg" xmlns:xlink="http://www.w3.org/1999/xlink">
 <g>
  <path d="m483.45 147.28h-170.58c-9.9609 0.011719-19.512 3.9648-26.574 10.992-7.0586 7.0312-11.055 16.566-11.113 26.527v27.383h-58.633c-9.9883 0.015625-19.566 3.9922-26.633 11.055-7.0625 7.0664-11.039 16.645-11.055 26.633v125.33c0.015625 9.9922 3.9922 19.57 11.055 26.633 7.0664 7.0664 16.645 11.043 26.633 11.055h170.58c9.9883-0.011719 19.566-3.9883 26.633-11.055 7.0625-7.0625 11.039-16.641 11.055-26.633v-27.551h58.633c9.9883-0.015626 19.566-3.9922 26.633-11.055 7.0625-7.0664 11.039-16.645 11.055-26.633v-125.16c-0.058594-9.9609-4.0547-19.496-11.113-26.527-7.0625-7.0273-16.613-10.98-26.574-10.992zm-75.434 227.92c0 5.5391-2.1992 10.855-6.1172 14.77-3.918 3.918-9.2305 6.1211-14.77 6.1211h-170.58c-5.5391 0-10.852-2.2031-14.77-6.1211-3.918-3.9141-6.1172-9.2305-6.1172-14.77v-125.16c0-5.5391 2.1992-10.852 6.1172-14.77s9.2305-6.1172 14.77-6.1172h170.58c5.5391 0 10.852 2.1992 14.77 6.1172 3.918 3.918 6.1172 9.2305 6.1172 14.77zm96.32-65.07c0 5.5391-2.1992 10.852-6.1172 14.77-3.918 3.918-9.2305 6.1172-14.77 6.1172h-58.633v-80.977c-0.015625-9.9883-3.9922-19.566-11.055-26.633-7.0664-7.0625-16.645-11.039-26.633-11.055h-95.199v-27.551c0-5.5391 2.1992-10.855 6.1172-14.77 3.918-3.918 9.2305-6.1211 14.77-6.1211h170.63c5.5391 0 10.852 2.2031 14.77 6.1211 3.918 3.9141 6.1172 9.2305 6.1172 14.77z"/>
 </g>
</svg>
