<?xml version="1.0" encoding="UTF-8"?>
<svg style="fill: #494949;" width="700pt" height="700pt" version="1.1" viewBox="0 0 700 700" xmlns="http://www.w3.org/2000/svg" xmlns:xlink="http://www.w3.org/1999/xlink">
 <g>
  <path d="m365.68 142.13c-3.1914-1.6797-7-1.457-9.9688 0.55859l-97.551 66.305h-45.023c-23.688 0-43.008 19.266-43.008 43.008v56.055c0 23.688 19.266 43.008 43.008 43.008h45.023l97.496 66.305c1.625 1.1211 3.5273 1.6797 5.4336 1.6797 1.5664 0 3.1367-0.39062 4.5352-1.1211 3.1914-1.6797 5.1523-4.9844 5.1523-8.5664v-258.66c0.054687-3.582-1.9609-6.8867-5.0977-8.5664zm-14.281 248.86-84.84-57.68c-1.625-1.1211-3.5273-1.6797-5.4336-1.6797h-48.047c-12.992 0-23.574-10.586-23.574-23.574v-56.113c0-12.992 10.586-23.574 23.574-23.574h48.047c1.9609 0 3.8633-0.55859 5.4336-1.6797l84.84-57.68z"/>
  <path d="m440.27 130.93c-4.7031-2.5195-10.586-0.72656-13.105 4.0312-2.5195 4.7031-0.72656 10.586 4.0312 13.105 2.4648 1.2891 4.8164 2.6328 7.168 4.0898 0.72656 1.0625 1.6797 1.9609 2.8008 2.6875 9.0703 5.7695 17.527 12.602 25.199 20.273 13.609 13.609 24.305 29.457 31.754 47.152 7.7852 18.312 11.703 37.801 11.703 57.793s-3.9219 39.426-11.703 57.793c-7.4492 17.695-18.145 33.543-31.754 47.152-7.6719 7.6719-16.129 14.504-25.199 20.273-1.1211 0.72656-2.0703 1.6797-2.8008 2.6875-2.3516 1.3984-4.7617 2.8008-7.168 4.0898-4.7031 2.5195-6.5508 8.3984-4.0312 13.105 1.7344 3.3047 5.0977 5.1523 8.5664 5.1523 1.5117 0 3.0781-0.39062 4.5352-1.1211 55.273-29.398 89.602-86.52 89.602-149.07 0-62.676-34.328-119.8-89.598-149.2z"/>
  <path d="m428.29 385c7.6172-4.8164 14.727-10.586 21.168-16.969 11.426-11.426 20.383-24.695 26.656-39.535 6.4961-15.398 9.8008-31.695 9.8008-48.441 0-16.742-3.3047-33.098-9.8008-48.441-6.2734-14.84-15.23-28.113-26.656-39.535-6.4414-6.4414-13.551-12.152-21.168-16.969-1.2305-0.78516-2.5742-1.2305-3.9219-1.3984-1.6797-1.0078-3.4141-2.0156-5.1523-2.9688-4.7031-2.5195-10.586-0.72656-13.105 4.0312-2.5195 4.7031-0.72656 10.586 4.0312 13.105 34.215 18.199 55.441 53.535 55.441 92.23s-21.223 74.09-55.441 92.23c-4.7031 2.5195-6.5508 8.3984-4.0312 13.105 1.7344 3.3047 5.0977 5.1523 8.5664 5.1523 1.5117 0 3.0781-0.33594 4.5352-1.1211 1.793-0.95312 3.5859-2.0156 5.3203-3.0781 1.293-0.27734 2.582-0.67188 3.7578-1.3984z"/>
  <path d="m442.57 281.68v-3.3594c-0.61719-29.457-17.191-56.391-43.23-70.223-4.7031-2.5195-10.586-0.72656-13.105 4.0312-2.5195 4.7031-0.72656 10.586 4.0312 13.105 19.879 10.586 32.48 31.078 32.93 53.594v2.5195c-0.44922 22.457-13.105 43.008-32.93 53.535-4.7031 2.5195-6.5508 8.3984-4.0312 13.105 1.7344 3.3047 5.0977 5.1523 8.5664 5.1523 1.5117 0 3.0781-0.39062 4.5352-1.1211 26.043-13.949 42.621-40.883 43.234-70.34z"/>
 </g>
</svg>
