<?xml version="1.0" encoding="UTF-8"?>
<svg style="fill: #494949;" width="700pt" height="700pt" version="1.1" viewBox="0 0 700 700" xmlns="http://www.w3.org/2000/svg" xmlns:xlink="http://www.w3.org/1999/xlink">

 <g>
  <path d="m524.78 154.5c-5.5547-1.1758-11.324 0.52734-15.344 4.5352l-38.695 38.641-26.711-8.9609-8.1758-24.191 39.648-38.863h-0.003906c4.0547-3.9844 5.8203-9.75 4.6914-15.324-1.1328-5.5703-5.0039-10.195-10.293-12.285-21.293-9.0898-44.832-11.555-67.551-7.0703-22.715 4.4844-43.551 15.711-59.793 32.215-28.898 28.422-40.926 69.832-31.75 109.31l-138.49 138.32c-14.855 14.855-20.656 36.508-15.219 56.801 5.4375 20.289 21.285 36.141 41.578 41.578s41.945-0.36328 56.801-15.219l135.52-135.52c11.352 3.6367 23.191 5.5234 35.113 5.5977h0.44922-0.003907c31.445 0.15234 61.66-12.195 84-34.328 16.082-15.914 27.168-36.172 31.902-58.297 4.7344-22.121 2.9102-45.145-5.2461-66.246-2.0039-5.4844-6.7109-9.5312-12.43-10.695zm-38.078 110.99h-0.003907c-16.016 15.855-37.664 24.715-60.199 24.641-11.398-0.03125-22.68-2.2969-33.207-6.6641-3.0781-1.3047-6.4766-1.6602-9.7617-1.0234-3.2812 0.64062-6.2969 2.2422-8.6641 4.6055l-143.14 143.19c-6.4297 5.9961-15.52 8.2031-23.984 5.8281-8.4648-2.375-15.082-8.9883-17.457-17.453s-0.16797-17.559 5.8281-23.988l142.69-142.63 1.9023-1.793c2.5039-2.1758 4.3086-5.043 5.1875-8.2422 0.875-3.1992 0.78516-6.5859-0.25781-9.7344-4.8867-14.715-5.5391-30.508-1.8867-45.578 3.6562-15.066 11.469-28.809 22.551-39.652 16.035-15.855 37.703-24.715 60.254-24.641h4.1992l-25.871 25.426c-2.25 2.2109-3.832 5.0117-4.5664 8.082-0.73438 3.0703-0.58594 6.2852 0.42188 9.2773l14.113 42.055c1.6914 4.9727 5.6055 8.8672 10.586 10.527l44.465 14.895-0.003907 0.003906c2.957 0.98828 6.1328 1.1367 9.1719 0.42578 3.0352-0.71484 5.8125-2.2578 8.0234-4.457l24.191-24.137c0.78906 22.91-8.1172 45.09-24.527 61.094z"/>
 </g>
</svg>
