<?xml version="1.0" encoding="UTF-8"?>
<svg style="fill: #494949;" width="700pt" height="700pt" version="1.1" viewBox="0 0 700 700" xmlns="http://www.w3.org/2000/svg" xmlns:xlink="http://www.w3.org/1999/xlink">
 <g>
  <path d="m256.67 46.668c-6.4453 0-11.668 5.2227-11.668 11.664v46.668c0 6.4414 5.2227 11.668 11.668 11.668h186.67-0.003907c6.4453 0 11.668-5.2266 11.668-11.668v-46.668c0-6.4414-5.2227-11.664-11.668-11.664h-186.67zm11.668 23.332h163.33v23.332h-163.33z" fill-rule="evenodd"/>
  <path d="m151.67 70c-6.4453 0-11.668 5.2227-11.668 11.668v466.67-0.003907c0 6.4453 5.2227 11.668 11.668 11.668h396.67-0.003907c6.4453 0 11.668-5.2227 11.668-11.668v-466.67 0.003907c0-6.4453-5.2227-11.668-11.668-11.668h-99.168 0.003907c-3.125-0.042969-6.1328 1.1641-8.3594 3.3594-2.2227 2.1914-3.4766 5.1836-3.4766 8.3086 0 3.1211 1.2539 6.1133 3.4766 8.3086 2.2266 2.1914 5.2344 3.4023 8.3594 3.3555h87.5v443.33h-373.33v-443.33h87.5-0.003907c3.125 0.046875 6.1328-1.1641 8.3594-3.3555 2.2227-2.1953 3.4766-5.1875 3.4766-8.3086 0-3.125-1.2539-6.1172-3.4766-8.3086-2.2266-2.1953-5.2344-3.4023-8.3594-3.3594h-99.168z" fill-rule="evenodd"/>
 </g>
</svg>
