<?xml version="1.0" encoding="UTF-8"?>
<svg style="fill: #494949;" width="700pt" height="700pt" version="1.1" viewBox="0 0 700 700" xmlns="http://www.w3.org/2000/svg" xmlns:xlink="http://www.w3.org/1999/xlink">

 <g>
  <path d="m350 39.199c-132.72 0-240.8 108.08-240.8 240.8s108.08 240.8 240.8 240.8c132.72 0 240.8-108.08 240.8-240.8 0-132.72-108.08-240.8-240.8-240.8zm0 448c-114.24 0-207.2-92.961-207.2-207.2s92.961-207.2 207.2-207.2 207.2 92.961 207.2 207.2-92.961 207.2-207.2 207.2z"/>
  <path d="m350 229.6c-9.5195 0-16.801 7.2812-16.801 16.801v128.8c0 9.5195 7.2812 16.801 16.801 16.801s16.801-7.2812 16.801-16.801v-128.8c0-9.5195-7.2812-16.797-16.801-16.797z"/>
  <path d="m350 168c-12.32 0-22.398 10.078-22.398 22.398 0 12.32 10.078 22.398 22.398 22.398s22.398-10.078 22.398-22.398c0-12.32-10.078-22.398-22.398-22.398z"/>
 </g>
</svg>
