<?xml version="1.0" encoding="UTF-8"?>
<svg style="fill: #494949;" width="700pt" height="700pt" version="1.1" viewBox="0 0 700 700" xmlns="http://www.w3.org/2000/svg">
 <g>
  <path d="m420 350c5.207 2.2422 10.953 2.9297 16.543 1.9805 5.5898-0.95312 10.785-3.5039 14.957-7.3477l125.32-116.39c8.3008-7.7305 13.016-18.566 13.016-29.914 0-11.344-4.7148-22.18-13.016-29.91l-125.3-116.36c-5.5742-5.1719-12.949-7.9609-20.555-7.7734-7.6016 0.1875-14.828 3.3359-20.145 8.7773-5.3125 5.4375-8.293 12.738-8.3008 20.344v49h-52.523c-41.773 0.050781-81.82 16.672-111.35 46.219s-46.129 69.602-46.152 111.38v70c-0.003906 4.2695 1.5586 8.3945 4.3867 11.59 2.8281 3.1992 6.7305 5.25 10.965 5.7695 0.71484 0.09375 1.4297 0.14062 2.1484 0.14062 3.8984-0.003906 7.6875-1.3086 10.762-3.7109 3.0703-2.3984 5.2539-5.7578 6.2031-9.543 0.1875-0.81641 21.188-80.078 123.01-80.078h52.5v49c-0.015624 5.6914 1.6367 11.266 4.75 16.035 3.1133 4.7695 7.5547 8.5195 12.773 10.797zm-70-110.83c-45.844-2.1094-90.41 15.445-122.5 48.254v-7.4219c0.035156-32.477 12.957-63.613 35.922-86.578s54.102-35.887 86.578-35.922h70c4.6406 0 9.0938-1.8438 12.375-5.125s5.125-7.7344 5.125-12.375v-53.199l115.5 107.33c1.1914 1.1016 1.8711 2.6484 1.8711 4.2695s-0.67969 3.1719-1.8711 4.2695l-115.5 107.33v-53.336c0-4.6445-1.8438-9.0938-5.125-12.375s-7.7344-5.125-12.375-5.125z"/>
  <path d="m583.33 309.14c-4.6406 0-9.0898 1.8438-12.375 5.125-3.2812 3.2812-5.125 7.7344-5.125 12.375v140c-0.003906 7.7344-3.0781 15.152-8.5469 20.625-5.4688 5.4727-12.883 8.5508-20.617 8.5625h-373.34c-7.7305-0.011719-15.141-3.0898-20.609-8.5547-5.4648-5.4688-8.543-12.879-8.5547-20.609v-373.34c0.011719-7.7305 3.0898-15.141 8.5547-20.609 5.4688-5.4648 12.879-8.543 20.609-8.5547h163.34c6.25 0 12.027-3.3359 15.152-8.75 3.1289-5.4141 3.1289-12.086 0-17.5-3.125-5.4141-8.9023-8.75-15.152-8.75h-163.34c-17.012 0.011719-33.328 6.7773-45.359 18.805-12.027 12.031-18.793 28.348-18.805 45.359v373.34c0.011719 17.012 6.7773 33.328 18.805 45.359 12.031 12.027 28.348 18.793 45.359 18.805h373.34c17.012-0.011719 33.328-6.7773 45.359-18.805 12.027-12.031 18.793-28.348 18.805-45.359v-140c0.007813-4.6484-1.832-9.1055-5.1172-12.391-3.2812-3.2852-7.7344-5.1328-12.383-5.1328z"/>
 </g>
</svg>
