<?xml version="1.0" encoding="UTF-8"?>
<svg style="fill:#494949; transform: scaleX(-1);" width="700pt" height="700pt" version="1.1" viewBox="0 0 700 700" xmlns="http://www.w3.org/2000/svg" xmlns:xlink="http://www.w3.org/1999/xlink">
 <g>
  <path d="m553.14 350.1c-76.383 20.602-156.26-3.4297-208.46-62.719-48.48-55.055-64.008-132.52-40.531-202.16 1.457-4.3047 3.0352-8.5234 4.6914-12.547l10.711-26-27.152 7.3164c-34.844 9.3984-66.277 26.297-93.438 50.219-30.789 27.109-53.957 61.875-67.008 100.55l-0.003906 0.011719c-26.637 78.996-8.9961 166.89 46.043 229.39 85.191 96.738 233.2 106.14 329.96 20.941 27.188-23.945 47.926-52.988 61.641-86.34l10.664-25.988zm-63.531 84.176c-85.266 75.082-215.71 66.805-290.79-18.445-48.492-55.09-64.043-132.57-40.566-202.21 11.48-34.051 31.902-64.688 59.047-88.59 17.016-14.984 35.957-26.855 56.52-35.441-20.535 75.453-1.9258 157.12 50.027 216.13 52.488 59.609 130.53 88.012 208.05 77.016-11.105 19.289-25.27 36.559-42.281 51.539z"/>
 </g>
</svg>
