<?xml version="1.0" encoding="UTF-8"?>
<svg width="700pt" height="700pt" version="1.1" viewBox="0 0 700 700" xmlns="http://www.w3.org/2000/svg" xmlns:xlink="http://www.w3.org/1999/xlink">
 <defs>
  <symbol id="w" overflow="visible">
   <path d="m18.828-1.125c-0.98047 0.5-1.9961 0.875-3.0469 1.125-1.043 0.25781-2.1367 0.39062-3.2812 0.39062-3.418 0-6.1211-0.95312-8.1094-2.8594-1.9922-1.9062-2.9844-4.4883-2.9844-7.75 0-3.2695 0.99219-5.8594 2.9844-7.7656 1.9883-1.9062 4.6914-2.8594 8.1094-2.8594 1.1445 0 2.2383 0.13281 3.2812 0.39062 1.0508 0.25 2.0664 0.625 3.0469 1.125v4.2344c-0.98047-0.66406-1.9492-1.1562-2.9062-1.4688-0.94922-0.3125-1.9492-0.46875-3-0.46875-1.8867 0-3.3711 0.60547-4.4531 1.8125-1.0742 1.2109-1.6094 2.875-1.6094 5 0 2.1172 0.53516 3.7773 1.6094 4.9844 1.082 1.2109 2.5664 1.8125 4.4531 1.8125 1.0508 0 2.0508-0.15625 3-0.46875 0.95703-0.3125 1.9258-0.80078 2.9062-1.4688z"/>
  </symbol>
  <symbol id="d" overflow="visible">
   <path d="m13.766-11.188c-0.42969-0.19531-0.85547-0.34375-1.2812-0.4375-0.41797-0.09375-0.84375-0.14062-1.2812-0.14062-1.2617 0-2.2344 0.40625-2.9219 1.2188-0.67969 0.80469-1.0156 1.9609-1.0156 3.4688v7.0781h-4.9062v-15.359h4.9062v2.5156c0.63281-1 1.3594-1.7266 2.1719-2.1875 0.82031-0.46875 1.8047-0.70312 2.9531-0.70312 0.16406 0 0.34375 0.011719 0.53125 0.03125 0.1875 0.011719 0.46875 0.039063 0.84375 0.078125z"/>
  </symbol>
  <symbol id="a" overflow="visible">
   <path d="m17.703-7.7188v1.3906h-11.484c0.11328 1.1562 0.52344 2.0273 1.2344 2.6094 0.71875 0.57422 1.7188 0.85938 3 0.85938 1.0312 0 2.0859-0.14844 3.1719-0.45312 1.082-0.3125 2.1953-0.78125 3.3438-1.4062v3.7812c-1.1562 0.4375-2.3203 0.76562-3.4844 0.98438-1.1562 0.22656-2.3203 0.34375-3.4844 0.34375-2.7812 0-4.9453-0.70312-6.4844-2.1094-1.543-1.4141-2.3125-3.3984-2.3125-5.9531 0-2.5 0.75391-4.4688 2.2656-5.9062 1.5195-1.4375 3.6016-2.1562 6.25-2.1562 2.4141 0 4.3477 0.73047 5.7969 2.1875 1.457 1.4492 2.1875 3.3906 2.1875 5.8281zm-5.0625-1.6406c0-0.92578-0.27344-1.6758-0.8125-2.25-0.54297-0.57031-1.25-0.85938-2.125-0.85938-0.96094 0-1.7344 0.27344-2.3281 0.8125-0.59375 0.53125-0.96484 1.2969-1.1094 2.2969z"/>
  </symbol>
  <symbol id="c" overflow="visible">
   <path d="m9.25-6.9062c-1.0312 0-1.8086 0.17188-2.3281 0.51562-0.51172 0.34375-0.76562 0.85547-0.76562 1.5312 0 0.625 0.20703 1.1172 0.625 1.4688 0.41406 0.35547 0.99219 0.53125 1.7344 0.53125 0.92578 0 1.7031-0.33203 2.3281-1 0.63281-0.66406 0.95312-1.4922 0.95312-2.4844v-0.5625zm7.5-1.8594v8.7656h-4.9531v-2.2812c-0.65625 0.9375-1.3984 1.6211-2.2188 2.0469-0.82422 0.41406-1.8242 0.625-3 0.625-1.5938 0-2.8906-0.46094-3.8906-1.3906-0.99219-0.92578-1.4844-2.1289-1.4844-3.6094 0-1.8008 0.61719-3.1172 1.8594-3.9531 1.2383-0.84375 3.1875-1.2656 5.8438-1.2656h2.8906v-0.39062c0-0.78125-0.30859-1.3477-0.92188-1.7031-0.61719-0.36328-1.5703-0.54688-2.8594-0.54688-1.0547 0-2.0312 0.10547-2.9375 0.3125-0.90625 0.21094-1.75 0.52734-2.5312 0.95312v-3.75c1.0508-0.25781 2.1094-0.45312 3.1719-0.57812 1.0625-0.13281 2.125-0.20312 3.1875-0.20312 2.7695 0 4.7695 0.54688 6 1.6406 1.2266 1.0938 1.8438 2.8711 1.8438 5.3281z"/>
  </symbol>
  <symbol id="b" overflow="visible">
   <path d="m7.7188-19.719v4.3594h5.0625v3.5h-5.0625v6.5156c0 0.71875 0.14062 1.2031 0.42188 1.4531 0.28906 0.25 0.85156 0.375 1.6875 0.375h2.5312v3.5156h-4.2188c-1.9375 0-3.3125-0.39844-4.125-1.2031-0.80469-0.8125-1.2031-2.1914-1.2031-4.1406v-6.5156h-2.4375v-3.5h2.4375v-4.3594z"/>
  </symbol>
  <symbol id="k" overflow="visible">
   <path d="m12.812-13.109v-8.2344h4.9375v21.344h-4.9375v-2.2188c-0.67969 0.90625-1.4219 1.5703-2.2344 1.9844s-1.7578 0.625-2.8281 0.625c-1.8984 0-3.4531-0.75-4.6719-2.25-1.2109-1.5-1.8125-3.4375-1.8125-5.8125 0-2.3633 0.60156-4.2969 1.8125-5.7969 1.2188-1.5078 2.7734-2.2656 4.6719-2.2656 1.0625 0 2 0.21484 2.8125 0.64062 0.82031 0.42969 1.5703 1.0898 2.25 1.9844zm-3.2344 9.9375c1.0508 0 1.8516-0.37891 2.4062-1.1406 0.55078-0.76953 0.82812-1.8906 0.82812-3.3594 0-1.457-0.27734-2.5703-0.82812-3.3438-0.55469-0.76953-1.3555-1.1562-2.4062-1.1562-1.043 0-1.8438 0.38672-2.4062 1.1562-0.55469 0.77344-0.82812 1.8867-0.82812 3.3438 0 1.4688 0.27344 2.5898 0.82812 3.3594 0.5625 0.76172 1.3633 1.1406 2.4062 1.1406z"/>
  </symbol>
  <symbol id="j" overflow="visible">
   <path d="m10.531-3.1719c1.0508 0 1.8516-0.37891 2.4062-1.1406 0.55078-0.76953 0.82812-1.8906 0.82812-3.3594 0-1.457-0.27734-2.5703-0.82812-3.3438-0.55469-0.76953-1.3555-1.1562-2.4062-1.1562-1.0547 0-1.8594 0.39062-2.4219 1.1719-0.5625 0.77344-0.84375 1.8828-0.84375 3.3281 0 1.4609 0.28125 2.5742 0.84375 3.3438 0.5625 0.77344 1.3672 1.1562 2.4219 1.1562zm-3.2656-9.9375c0.67578-0.89453 1.4258-1.5547 2.25-1.9844 0.82031-0.42578 1.7695-0.64062 2.8438-0.64062 1.8945 0 3.4453 0.75781 4.6562 2.2656 1.2188 1.5 1.8281 3.4336 1.8281 5.7969 0 2.375-0.60938 4.3125-1.8281 5.8125-1.2109 1.5-2.7617 2.25-4.6562 2.25-1.0742 0-2.0234-0.21094-2.8438-0.625-0.82422-0.42578-1.5742-1.0859-2.25-1.9844v2.2188h-4.9062v-21.344h4.9062z"/>
  </symbol>
  <symbol id="i" overflow="visible">
   <path d="m0.34375-15.359h4.9062l4.1406 10.422 3.5-10.422h4.9219l-6.4688 16.812c-0.64844 1.707-1.4023 2.8984-2.2656 3.5781-0.86719 0.6875-2.0078 1.0312-3.4219 1.0312h-2.8438v-3.2188h1.5312c0.83203 0 1.4375-0.13672 1.8125-0.40625 0.38281-0.26172 0.67969-0.73438 0.89062-1.4219l0.14062-0.42188z"/>
  </symbol>
  <symbol id="g" overflow="visible">
   <path d="m7.8594-16.484v12.5h1.8906c2.1562 0 3.8008-0.53516 4.9375-1.6094 1.1445-1.0703 1.7188-2.6289 1.7188-4.6719 0-2.0312-0.57031-3.5703-1.7031-4.625-1.1367-1.0625-2.7891-1.5938-4.9531-1.5938zm-5.2812-4h5.5625c3.1133 0 5.4297 0.22656 6.9531 0.67188 1.5195 0.4375 2.8281 1.1875 3.9219 2.25 0.95703 0.92969 1.6719 1.9961 2.1406 3.2031 0.46875 1.2109 0.70312 2.5742 0.70312 4.0938 0 1.5547-0.23438 2.9336-0.70312 4.1406-0.46875 1.2109-1.1836 2.2773-2.1406 3.2031-1.1055 1.0625-2.4297 1.8203-3.9688 2.2656-1.5312 0.4375-3.8359 0.65625-6.9062 0.65625h-5.5625z"/>
  </symbol>
  <symbol id="v" overflow="visible">
   <path d="m0.98438-15.359h4.7812l2.5781 10.578 2.5938-10.578h4.0938l2.5781 10.469 2.5938-10.469h4.7812l-4.0469 15.359h-5.375l-2.5781-10.562-2.5938 10.562h-5.3594z"/>
  </symbol>
  <symbol id="f" overflow="visible">
   <path d="m17.812-9.3594v9.3594h-4.9531v-7.1562c0-1.332-0.03125-2.25-0.09375-2.75-0.054687-0.5-0.15234-0.86719-0.29688-1.1094-0.1875-0.32031-0.44922-0.57031-0.78125-0.75-0.33594-0.17578-0.71094-0.26562-1.125-0.26562-1.0234 0-1.8281 0.39844-2.4219 1.1875-0.58594 0.79297-0.875 1.8867-0.875 3.2812v7.5625h-4.9062v-15.359h4.9062v2.25c0.73828-0.89453 1.5234-1.5547 2.3594-1.9844 0.83203-0.42578 1.7539-0.64062 2.7656-0.64062 1.7695 0 3.1133 0.54688 4.0312 1.6406 0.92578 1.0859 1.3906 2.6641 1.3906 4.7344z"/>
  </symbol>
  <symbol id="h" overflow="visible">
   <path d="m14.359-14.891v3.7344c-1.0547-0.4375-2.0703-0.76562-3.0469-0.98438-0.98047-0.21875-1.9023-0.32812-2.7656-0.32812-0.9375 0-1.6367 0.12109-2.0938 0.35938-0.44922 0.23047-0.67188 0.58594-0.67188 1.0625 0 0.39844 0.17188 0.69922 0.51562 0.90625 0.34375 0.21094 0.95703 0.36719 1.8438 0.46875l0.875 0.125c2.5078 0.32422 4.1953 0.85156 5.0625 1.5781 0.875 0.73047 1.3125 1.875 1.3125 3.4375 0 1.6367-0.60547 2.8672-1.8125 3.6875-1.2109 0.82422-3.0117 1.2344-5.4062 1.2344-1.0117 0-2.0586-0.078125-3.1406-0.23438-1.0859-0.15625-2.1992-0.39453-3.3438-0.71875v-3.7344c0.97656 0.48047 1.9766 0.83984 3 1.0781 1.0312 0.24219 2.0781 0.35938 3.1406 0.35938 0.95703 0 1.6797-0.12891 2.1719-0.39062 0.48828-0.26953 0.73438-0.66406 0.73438-1.1875 0-0.44531-0.17188-0.77344-0.51562-0.98438-0.33594-0.21875-0.99609-0.38281-1.9844-0.5l-0.875-0.10938c-2.1797-0.28125-3.7109-0.78906-4.5938-1.5312-0.875-0.73828-1.3125-1.8633-1.3125-3.375 0-1.625 0.55469-2.8281 1.6719-3.6094 1.1133-0.78906 2.8281-1.1875 5.1406-1.1875 0.89453 0 1.8438 0.070313 2.8438 0.20312 1 0.13672 2.082 0.35156 3.25 0.64062z"/>
  </symbol>
  <symbol id="u" overflow="visible">
   <path d="m2.3594-15.359h4.9062v15.359h-4.9062zm0-5.9844h4.9062v4h-4.9062z"/>
  </symbol>
  <symbol id="t" overflow="visible">
   <path d="m12.812-2.6094c-0.67969 0.89844-1.4219 1.5586-2.2344 1.9844-0.8125 0.41797-1.7578 0.625-2.8281 0.625-1.875 0-3.4297-0.73828-4.6562-2.2188-1.2188-1.4766-1.8281-3.3594-1.8281-5.6406 0-2.2891 0.60938-4.1719 1.8281-5.6406 1.2266-1.4688 2.7812-2.2031 4.6562-2.2031 1.0703 0 2.0156 0.21484 2.8281 0.64062 0.8125 0.41797 1.5547 1.0742 2.2344 1.9688v-2.2656h4.9375v13.812c0 2.4688-0.78125 4.3516-2.3438 5.6562-1.5547 1.3008-3.8125 1.9531-6.7812 1.9531-0.96094 0-1.8867-0.074219-2.7812-0.21875-0.89844-0.14844-1.7969-0.37109-2.7031-0.67188v-3.8281c0.86328 0.48828 1.707 0.85156 2.5312 1.0938 0.82031 0.25 1.6445 0.375 2.4688 0.375 1.6133 0 2.7969-0.35547 3.5469-1.0625 0.75-0.69922 1.125-1.7969 1.125-3.2969zm-3.2344-9.5625c-1.0234 0-1.8203 0.375-2.3906 1.125-0.5625 0.75-0.84375 1.8125-0.84375 3.1875 0 1.4062 0.27344 2.4766 0.82812 3.2031 0.55078 0.73047 1.3516 1.0938 2.4062 1.0938 1.0195 0 1.8125-0.375 2.375-1.125 0.57031-0.75 0.85938-1.8047 0.85938-3.1719 0-1.375-0.28906-2.4375-0.85938-3.1875-0.5625-0.75-1.3555-1.125-2.375-1.125z"/>
  </symbol>
  <symbol id="s" overflow="visible">
   <path d="m12.469-21.344v3.2188h-2.7188c-0.69922 0-1.1836 0.13281-1.4531 0.39062-0.27344 0.25-0.40625 0.68359-0.40625 1.2969v1.0781h4.1875v3.5h-4.1875v11.859h-4.9062v-11.859h-2.4531v-3.5h2.4531v-1.0781c0-1.6641 0.46094-2.8984 1.3906-3.7031 0.9375-0.80078 2.3789-1.2031 4.3281-1.2031z"/>
  </symbol>
  <symbol id="e" overflow="visible">
   <path d="m9.6719-12.219c-1.0938 0-1.9297 0.39062-2.5 1.1719-0.5625 0.78125-0.84375 1.9062-0.84375 3.375 0 1.4805 0.28125 2.6094 0.84375 3.3906 0.57031 0.78125 1.4062 1.1719 2.5 1.1719 1.0703 0 1.8906-0.39062 2.4531-1.1719 0.57031-0.78125 0.85938-1.9102 0.85938-3.3906 0-1.4688-0.28906-2.5938-0.85938-3.375-0.5625-0.78125-1.3828-1.1719-2.4531-1.1719zm0-3.5156c2.6445 0 4.707 0.71484 6.1875 2.1406 1.4883 1.4297 2.2344 3.4023 2.2344 5.9219 0 2.5312-0.74609 4.5117-2.2344 5.9375-1.4805 1.418-3.543 2.125-6.1875 2.125-2.6562 0-4.7344-0.70703-6.2344-2.125-1.4922-1.4258-2.2344-3.4062-2.2344-5.9375 0-2.5195 0.74219-4.4922 2.2344-5.9219 1.5-1.4258 3.5781-2.1406 6.2344-2.1406z"/>
  </symbol>
  <symbol id="r" overflow="visible">
   <path d="m16.594-12.812c0.625-0.94531 1.3633-1.6719 2.2188-2.1719 0.85156-0.5 1.7891-0.75 2.8125-0.75 1.7695 0 3.1133 0.54688 4.0312 1.6406 0.92578 1.0859 1.3906 2.6641 1.3906 4.7344v9.3594h-4.9375v-8.0156c0.007813-0.11328 0.015625-0.23438 0.015625-0.35938 0.007812-0.13281 0.015625-0.32031 0.015625-0.5625 0-1.082-0.16406-1.8672-0.48438-2.3594-0.3125-0.48828-0.82812-0.73438-1.5469-0.73438-0.9375 0-1.6641 0.38672-2.1719 1.1562-0.5 0.77344-0.76172 1.8828-0.78125 3.3281v7.5469h-4.9375v-8.0156c0-1.6953-0.14844-2.7891-0.4375-3.2812-0.29297-0.48828-0.8125-0.73438-1.5625-0.73438-0.9375 0-1.668 0.38672-2.1875 1.1562-0.51172 0.77344-0.76562 1.875-0.76562 3.3125v7.5625h-4.9375v-15.359h4.9375v2.25c0.60156-0.875 1.2969-1.5312 2.0781-1.9688s1.6445-0.65625 2.5938-0.65625c1.0625 0 2 0.25781 2.8125 0.76562 0.8125 0.51172 1.4258 1.2305 1.8438 2.1562z"/>
  </symbol>
  <symbol id="q" overflow="visible">
   <path d="m17.812-9.3594v9.3594h-4.9531v-7.1406c0-1.3438-0.03125-2.2656-0.09375-2.7656-0.054687-0.5-0.15234-0.86719-0.29688-1.1094-0.1875-0.32031-0.44922-0.57031-0.78125-0.75-0.33594-0.17578-0.71094-0.26562-1.125-0.26562-1.0234 0-1.8281 0.39844-2.4219 1.1875-0.58594 0.79297-0.875 1.8867-0.875 3.2812v7.5625h-4.9062v-21.344h4.9062v8.2344c0.73828-0.89453 1.5234-1.5547 2.3594-1.9844 0.83203-0.42578 1.7539-0.64062 2.7656-0.64062 1.7695 0 3.1133 0.54688 4.0312 1.6406 0.92578 1.0859 1.3906 2.6641 1.3906 4.7344z"/>
  </symbol>
  <symbol id="p" overflow="visible">
   <path d="m2.5781-20.484h5.9062l7.4375 14.047v-14.047h5.0156v20.484h-5.9062l-7.4531-14.047v14.047h-5z"/>
  </symbol>
  <symbol id="o" overflow="visible">
   <path d="m2.1875-5.9844v-9.375h4.9531v1.5312c0 0.83594-0.007813 1.8828-0.015625 3.1406-0.011719 1.25-0.015625 2.0898-0.015625 2.5156 0 1.2305 0.03125 2.1211 0.09375 2.6719 0.0625 0.54297 0.17188 0.93359 0.32812 1.1719 0.19531 0.32422 0.45703 0.57422 0.78125 0.75 0.33203 0.17969 0.70703 0.26562 1.125 0.26562 1.0195 0 1.8203-0.39062 2.4062-1.1719 0.59375-0.78906 0.89062-1.8906 0.89062-3.2969v-7.5781h4.9062v15.359h-4.9062v-2.2188c-0.74219 0.89844-1.5273 1.5586-2.3594 1.9844-0.82422 0.41406-1.7344 0.625-2.7344 0.625-1.7734 0-3.125-0.53906-4.0625-1.625-0.92969-1.082-1.3906-2.6641-1.3906-4.75z"/>
  </symbol>
  <symbol id="n" overflow="visible">
   <path d="m2.5781-20.484h8.7656c2.6016 0 4.6016 0.57812 6 1.7344 1.3945 1.1562 2.0938 2.8086 2.0938 4.9531 0 2.1484-0.69922 3.7969-2.0938 4.9531-1.3984 1.1562-3.3984 1.7344-6 1.7344h-3.4844v7.1094h-5.2812zm5.2812 3.8281v5.7188h2.9219c1.0195 0 1.8047-0.24219 2.3594-0.73438 0.5625-0.5 0.84375-1.207 0.84375-2.125 0-0.91406-0.28125-1.6172-0.84375-2.1094-0.55469-0.5-1.3398-0.75-2.3594-0.75z"/>
  </symbol>
  <symbol id="m" overflow="visible">
   <path d="m2.3594-15.359h4.9062v15.078c0 2.0625-0.49609 3.6328-1.4844 4.7188-0.98047 1.082-2.4062 1.625-4.2812 1.625h-2.4375v-3.2188h0.85938c0.92578 0 1.5625-0.21484 1.9062-0.64062 0.35156-0.41797 0.53125-1.2461 0.53125-2.4844zm0-5.9844h4.9062v4h-4.9062z"/>
  </symbol>
  <symbol id="l" overflow="visible">
   <path d="m14.781-14.891v4.0156c-0.67969-0.45703-1.3555-0.79688-2.0312-1.0156-0.66797-0.21875-1.3594-0.32812-2.0781-0.32812-1.375 0-2.4453 0.40234-3.2031 1.2031-0.76172 0.79297-1.1406 1.9062-1.1406 3.3438s0.37891 2.5586 1.1406 3.3594c0.75781 0.80469 1.8281 1.2031 3.2031 1.2031 0.76953 0 1.5-0.11328 2.1875-0.34375 0.6875-0.22656 1.3281-0.56641 1.9219-1.0156v4.0156c-0.77344 0.28125-1.5547 0.48828-2.3438 0.625-0.79297 0.14453-1.5859 0.21875-2.375 0.21875-2.7734 0-4.9453-0.70703-6.5156-2.125-1.5625-1.4258-2.3438-3.4062-2.3438-5.9375s0.78125-4.5039 2.3438-5.9219c1.5703-1.4258 3.7422-2.1406 6.5156-2.1406 0.80078 0 1.5938 0.074219 2.375 0.21875 0.78125 0.13672 1.5625 0.34375 2.3438 0.625z"/>
  </symbol>
 </defs>
 <g>
  <path d="m308.12 181.65c4.375-1.5664 6.6562-6.3789 5.0977-10.758s-6.3672-6.668-10.746-5.1211c-42.324 15.062-75.004 49.285-88.094 92.258s-5.0391 89.605 21.699 125.7c26.738 36.094 69 57.383 113.92 57.383s87.184-21.289 113.92-57.383c26.738-36.098 34.789-82.73 21.699-125.7s-45.77-77.195-88.094-92.258c-2.1055-0.75391-4.4258-0.64062-6.4492 0.31641-2.0234 0.96094-3.582 2.6836-4.332 4.793s-0.63281 4.4297 0.33203 6.4492c0.96094 2.0234 2.6875 3.5781 4.8008 4.3203 37.289 13.27 66.082 43.426 77.617 81.289s4.4414 78.953-19.117 110.76c-23.559 31.805-60.797 50.562-100.38 50.562s-76.82-18.758-100.38-50.562c-23.559-31.805-30.652-72.895-19.117-110.76s40.328-68.02 77.621-81.289z"/>
  <path d="m358.43 253.23v-125.96c0-4.6562-3.7734-8.4297-8.4297-8.4297s-8.4297 3.7734-8.4297 8.4297v125.96c0 4.6523 3.7734 8.4258 8.4297 8.4258s8.4297-3.7734 8.4297-8.4258z"/>
  <use x="70" y="644.28125" xlink:href="#w"/>
  <use x="90.617188" y="644.28125" xlink:href="#d"/>
  <use x="104.472656" y="644.28125" xlink:href="#a"/>
  <use x="123.527344" y="644.28125" xlink:href="#c"/>
  <use x="142.484375" y="644.28125" xlink:href="#b"/>
  <use x="155.914062" y="644.28125" xlink:href="#a"/>
  <use x="174.96875" y="644.28125" xlink:href="#k"/>
  <use x="204.859375" y="644.28125" xlink:href="#j"/>
  <use x="224.96875" y="644.28125" xlink:href="#i"/>
  <use x="253.0625" y="644.28125" xlink:href="#g"/>
  <use x="276.382812" y="644.28125" xlink:href="#a"/>
  <use x="295.433594" y="644.28125" xlink:href="#v"/>
  <use x="321.390625" y="644.28125" xlink:href="#c"/>
  <use x="340.347656" y="644.28125" xlink:href="#f"/>
  <use x="360.347656" y="644.28125" xlink:href="#c"/>
  <use x="379.304688" y="644.28125" xlink:href="#b"/>
  <use x="392.734375" y="644.28125" xlink:href="#c"/>
  <use x="421.472656" y="644.28125" xlink:href="#g"/>
  <use x="444.792969" y="644.28125" xlink:href="#a"/>
  <use x="463.847656" y="644.28125" xlink:href="#h"/>
  <use x="480.566406" y="644.28125" xlink:href="#u"/>
  <use x="490.199219" y="644.28125" xlink:href="#t"/>
  <use x="510.308594" y="644.28125" xlink:href="#f"/>
  <use x="530.308594" y="644.28125" xlink:href="#h"/>
  <use x="70" y="672.375" xlink:href="#s"/>
  <use x="82.222656" y="672.375" xlink:href="#d"/>
  <use x="96.078125" y="672.375" xlink:href="#e"/>
  <use x="115.378906" y="672.375" xlink:href="#r"/>
  <use x="154.433594" y="672.375" xlink:href="#b"/>
  <use x="167.863281" y="672.375" xlink:href="#q"/>
  <use x="187.863281" y="672.375" xlink:href="#a"/>
  <use x="216.695312" y="672.375" xlink:href="#p"/>
  <use x="240.207031" y="672.375" xlink:href="#e"/>
  <use x="259.507812" y="672.375" xlink:href="#o"/>
  <use x="279.507812" y="672.375" xlink:href="#f"/>
  <use x="309.289062" y="672.375" xlink:href="#n"/>
  <use x="329.878906" y="672.375" xlink:href="#d"/>
  <use x="343.734375" y="672.375" xlink:href="#e"/>
  <use x="363.035156" y="672.375" xlink:href="#m"/>
  <use x="372.664062" y="672.375" xlink:href="#a"/>
  <use x="391.71875" y="672.375" xlink:href="#l"/>
  <use x="408.371094" y="672.375" xlink:href="#b"/>
 </g>
</svg>
