<?xml version="1.0" encoding="UTF-8"?>
<svg width="700pt" height="700pt" version="1.1" viewBox="0 0 700 550" xmlns="http://www.w3.org/2000/svg" xmlns:xlink="http://www.w3.org/1999/xlink">
 <g>
  <path d="m484.4 156.8h-268.8c-3.0898 0-5.6016 2.5078-5.6016 5.6016v235.2c0 3.0898 2.5078 5.6016 5.6016 5.6016h268.8c3.0898 0 5.6016-2.5078 5.6016-5.6016l-0.003906-235.2c0-3.0898-2.5078-5.5977-5.6016-5.5977zm-5.5977 11.199v33.602h-257.6v-33.602zm-257.6 224v-179.2h257.6v179.2zm201.6-207.2c0-3.0898 2.5078-5.6016 5.6016-5.6016h33.602c3.0898 0 5.6016 2.5078 5.6016 5.6016 0 3.0898-2.5078 5.6016-5.6016 5.6016h-33.602c-3.0938-0.003906-5.6016-2.5117-5.6016-5.6016zm-190.4 0c0-3.0898 2.5078-5.6016 5.6016-5.6016h168c3.0898 0 5.6016 2.5078 5.6016 5.6016 0 3.0898-2.5078 5.6016-5.6016 5.6016l-168-0.003906c-3.0898 0-5.6016-2.5078-5.6016-5.5977z"/>
 </g>
</svg>
