<?xml version="1.0" encoding="UTF-8"?>
<svg width="700pt" height="700pt" version="1.1" viewBox="0 0 700 700" fill="#666" xmlns="http://www.w3.org/2000/svg" xmlns:xlink="http://www.w3.org/1999/xlink">
 <g>
  <path d="m310.79 78.402c-89.488 0-162.39 72.902-162.39 162.39s72.906 162.39 162.39 162.39c38.703 0 74.254-13.68 102.2-36.398l109.89 109.89c6.5586 6.5586 17.238 6.5586 23.797 0 6.5586-6.5586 6.5586-17.062 0-23.625l-109.89-109.89c22.762-27.957 36.398-63.625 36.398-102.37 0-89.488-72.906-162.39-162.39-162.39zm0 33.598c71.328 0 128.79 57.465 128.79 128.79s-57.465 128.79-128.79 128.79-128.79-57.465-128.79-128.79 57.465-128.79 128.79-128.79z"/>
 </g>
</svg>
