<?xml version="1.0" encoding="UTF-8"?>
<svg width="700pt" height="700pt" version="1.1" viewBox="0 0 700 700" xmlns="http://www.w3.org/2000/svg">
 <path d="m298.2 383.46c37.172 0 72.262-13.16 100.19-37.125l135.8 136.15c2.5195 2.5195 5.832 3.7812 9.125 3.7812 3.2891 0 6.5781-1.2617 9.1016-3.7578 5.0391-5.0391 5.0625-13.184 0.023437-18.223l-135.92-136.24c50.891-60.762 47.902-151.76-9.0781-208.9-29.164-29.285-67.969-45.406-109.25-45.406-41.277 0-80.078 16.121-109.25 45.383-60.223 60.363-60.223 158.6 0 218.98 29.168 29.258 67.969 45.359 109.25 45.359zm-91-246.14c24.312-24.383 56.629-37.801 91-37.801 34.371 0 66.688 13.418 91 37.801 50.215 50.328 50.215 132.23 0 182.56-24.312 24.383-56.629 37.801-91 37.801-34.371 0-66.688-13.418-91-37.801-50.211-50.328-50.211-132.23 0-182.56z"/>
</svg>
