<?xml version="1.0" encoding="UTF-8"?>
<svg fill="#666" width="700pt" height="700pt" version="1.1" viewBox="0 0 700 700" xmlns="http://www.w3.org/2000/svg" xmlns:xlink="http://www.w3.org/1999/xlink">
 <g>
  <path d="m350 0c88.328 0 160.76 72.43 160.76 160.76 0 58.297-31.797 109.53-77.73 137.79 104.23 31.797 181.96 123.66 192.55 236.72 3.5312 28.266-40.633 33.566-44.164 3.5312-12.367-116.59-111.29-208.45-231.42-208.45s-219.05 91.859-231.42 208.45c-1.7656 30.031-47.695 24.73-44.164-3.5312 12.367-113.06 90.094-204.92 194.32-236.72-47.695-28.266-79.496-79.496-79.496-137.79 0-88.328 72.43-160.76 160.76-160.76zm0 44.164c-63.598 0-114.83 52.996-114.83 116.59 0 63.598 51.23 114.83 114.83 114.83s116.59-51.23 116.59-114.83c0-63.598-52.996-116.59-116.59-116.59z"/>
 </g>
</svg>
