<?xml version="1.0" encoding="UTF-8"?>
<svg width="700pt" height="700pt" version="1.1" viewBox="0 0 700 700" xmlns="http://www.w3.org/2000/svg" xmlns:xlink="http://www.w3.org/1999/xlink">
 <defs>
  <symbol id="t" overflow="visible">
   <path d="m5.9219-0.35938c-0.3125 0.16797-0.63672 0.28906-0.96875 0.35938-0.32422 0.082031-0.66797 0.125-1.0312 0.125-1.0742 0-1.9219-0.29688-2.5469-0.89062-0.625-0.60156-0.9375-1.4219-0.9375-2.4531 0-1.0195 0.3125-1.8281 0.9375-2.4219 0.625-0.60156 1.4727-0.90625 2.5469-0.90625 0.36328 0 0.70703 0.042969 1.0312 0.125 0.33203 0.074219 0.65625 0.1875 0.96875 0.34375v1.3438c-0.3125-0.21875-0.62109-0.375-0.92188-0.46875-0.29297-0.09375-0.60547-0.14062-0.9375-0.14062-0.59375 0-1.0625 0.1875-1.4062 0.5625-0.33594 0.375-0.5 0.89844-0.5 1.5625 0 0.66797 0.16406 1.1953 0.5 1.5781 0.34375 0.375 0.8125 0.5625 1.4062 0.5625 0.33203 0 0.64453-0.046875 0.9375-0.14062 0.30078-0.10156 0.60938-0.25781 0.92188-0.46875z"/>
  </symbol>
  <symbol id="c" overflow="visible">
   <path d="m4.3281-3.5156c-0.13672-0.0625-0.27344-0.10938-0.40625-0.14062-0.13672-0.03125-0.27344-0.046875-0.40625-0.046875-0.39844 0-0.70312 0.13281-0.92188 0.39062-0.21094 0.25-0.3125 0.61719-0.3125 1.0938v2.2188h-1.5469v-4.8281h1.5469v0.79688c0.19531-0.32031 0.42578-0.55078 0.6875-0.6875 0.25781-0.14453 0.56641-0.21875 0.92188-0.21875h0.17188c0.0625 0 0.14844 0.011719 0.26562 0.03125z"/>
  </symbol>
  <symbol id="a" overflow="visible">
   <path d="m5.5625-2.4219v0.4375h-3.6094c0.039063 0.36719 0.17188 0.63672 0.39062 0.8125 0.22656 0.17969 0.53906 0.26562 0.9375 0.26562 0.32031 0 0.65625-0.046875 1-0.14062s0.69141-0.23828 1.0469-0.4375v1.1875c-0.36719 0.13672-0.73047 0.24219-1.0938 0.3125-0.36719 0.070312-0.73047 0.10938-1.0938 0.10938-0.875 0-1.5586-0.21875-2.0469-0.65625-0.48047-0.44531-0.71875-1.0703-0.71875-1.875 0-0.78906 0.23828-1.4102 0.71875-1.8594 0.47656-0.44531 1.1328-0.67188 1.9688-0.67188 0.75 0 1.3516 0.23047 1.8125 0.6875 0.45703 0.44922 0.6875 1.0586 0.6875 1.8281zm-1.5938-0.51562c0-0.28906-0.085938-0.52344-0.25-0.70312-0.16797-0.1875-0.39062-0.28125-0.67188-0.28125-0.30469 0-0.54688 0.089844-0.73438 0.26562-0.1875 0.16797-0.30469 0.40625-0.34375 0.71875z"/>
  </symbol>
  <symbol id="e" overflow="visible">
   <path d="m2.9062-2.1719c-0.32422 0-0.57031 0.058594-0.73438 0.17188-0.15625 0.10547-0.23438 0.26172-0.23438 0.46875 0 0.19922 0.0625 0.35547 0.1875 0.46875 0.13281 0.10547 0.31641 0.15625 0.54688 0.15625 0.28906 0 0.53516-0.10156 0.73438-0.3125 0.19531-0.20703 0.29688-0.46875 0.29688-0.78125v-0.17188zm2.3594-0.57812v2.75h-1.5625v-0.71875c-0.21094 0.29297-0.44531 0.50781-0.70312 0.64062-0.25 0.13281-0.5625 0.20312-0.9375 0.20312-0.5 0-0.90625-0.14453-1.2188-0.4375-0.3125-0.28906-0.46875-0.67188-0.46875-1.1406 0-0.5625 0.19141-0.97266 0.57812-1.2344 0.39453-0.26953 1.0078-0.40625 1.8438-0.40625h0.90625v-0.125c0-0.23828-0.10156-0.41406-0.29688-0.53125-0.1875-0.11328-0.48438-0.17188-0.89062-0.17188-0.33594 0-0.64062 0.039063-0.92188 0.10938-0.28125 0.0625-0.54688 0.16406-0.79688 0.29688v-1.1875c0.33203-0.070313 0.66406-0.12891 1-0.17188 0.33203-0.039062 0.66406-0.0625 1-0.0625 0.875 0 1.5039 0.17188 1.8906 0.51562 0.38281 0.34375 0.57812 0.90234 0.57812 1.6719z"/>
  </symbol>
  <symbol id="b" overflow="visible">
   <path d="m2.4219-6.2031v1.375h1.5938v1.1094h-1.5938v2.0469c0 0.21875 0.039063 0.37109 0.125 0.45312 0.09375 0.074219 0.27344 0.10938 0.54688 0.10938h0.79688v1.1094h-1.3281c-0.61719 0-1.0469-0.125-1.2969-0.375-0.25-0.25781-0.375-0.69141-0.375-1.2969v-2.0469h-0.78125v-1.1094h0.78125v-1.375z"/>
  </symbol>
  <symbol id="k" overflow="visible">
   <path d="m4.0312-4.125v-2.5781h1.5469v6.7031h-1.5469v-0.70312c-0.21875 0.29297-0.46094 0.50781-0.71875 0.64062-0.25 0.125-0.54297 0.1875-0.875 0.1875-0.59375 0-1.0859-0.23438-1.4688-0.70312-0.38672-0.47656-0.57812-1.0859-0.57812-1.8281 0-0.75 0.19141-1.3594 0.57812-1.8281 0.38281-0.46875 0.875-0.70312 1.4688-0.70312 0.33203 0 0.625 0.070312 0.875 0.20312 0.25781 0.125 0.5 0.32812 0.71875 0.60938zm-1.0156 3.125c0.32031 0 0.57031-0.11719 0.75-0.35938 0.17578-0.23828 0.26562-0.58594 0.26562-1.0469 0-0.45703-0.089844-0.80469-0.26562-1.0469-0.17969-0.25-0.42969-0.375-0.75-0.375-0.33594 0-0.58984 0.125-0.76562 0.375-0.16797 0.24219-0.25 0.58984-0.25 1.0469 0 0.46094 0.082031 0.80859 0.25 1.0469 0.17578 0.24219 0.42969 0.35938 0.76562 0.35938z"/>
  </symbol>
  <symbol id="j" overflow="visible">
   <path d="m3.3125-1c0.33203 0 0.58203-0.11719 0.75-0.35938 0.17578-0.23828 0.26562-0.58594 0.26562-1.0469 0-0.45703-0.089844-0.80469-0.26562-1.0469-0.16797-0.25-0.41797-0.375-0.75-0.375-0.33594 0-0.58984 0.125-0.76562 0.375-0.17969 0.24219-0.26562 0.58984-0.26562 1.0469 0 0.46094 0.085938 0.80859 0.26562 1.0469 0.17578 0.24219 0.42969 0.35938 0.76562 0.35938zm-1.0312-3.125c0.21875-0.28125 0.45312-0.48438 0.70312-0.60938 0.25781-0.13281 0.5625-0.20312 0.90625-0.20312 0.59375 0 1.0781 0.23438 1.4531 0.70312 0.38281 0.46875 0.57812 1.0781 0.57812 1.8281 0 0.74219-0.19531 1.3516-0.57812 1.8281-0.375 0.46875-0.85938 0.70312-1.4531 0.70312-0.34375 0-0.64844-0.070312-0.90625-0.20312-0.25-0.13281-0.48438-0.34375-0.70312-0.625v0.70312h-1.5469v-6.7031h1.5469z"/>
  </symbol>
  <symbol id="i" overflow="visible">
   <path d="m0.10938-4.8281h1.5469l1.2969 3.2812 1.0938-3.2812h1.5469l-2.0312 5.2812c-0.19922 0.53906-0.4375 0.91406-0.71875 1.125-0.27344 0.21875-0.625 0.32812-1.0625 0.32812h-0.89062v-1.0156h0.46875c0.26953 0 0.46094-0.042969 0.57812-0.125 0.11328-0.085937 0.20703-0.23438 0.28125-0.45312l0.046875-0.125z"/>
  </symbol>
  <symbol id="h" overflow="visible">
   <path d="m0.73438-4.8281h1.5469v4.8281h-1.5469zm0-1.875h1.5469v1.25h-1.5469z"/>
  </symbol>
  <symbol id="g" overflow="visible">
   <path d="m0.73438-4.8281h1.5469v4.7344c0 0.65625-0.15625 1.1484-0.46875 1.4844-0.30469 0.34375-0.75 0.51562-1.3438 0.51562h-0.76562v-1.0156h0.26562c0.28906 0 0.48828-0.070313 0.59375-0.20312 0.11328-0.125 0.17188-0.38672 0.17188-0.78125zm0-1.875h1.5469v1.25h-1.5469z"/>
  </symbol>
  <symbol id="f" overflow="visible">
   <path d="m5.5938-2.9375v2.9375h-1.5469v-2.25c0-0.41406-0.011719-0.70312-0.03125-0.85938-0.023437-0.15625-0.054687-0.27344-0.09375-0.35938-0.0625-0.09375-0.14844-0.16406-0.25-0.21875-0.10547-0.0625-0.22656-0.09375-0.35938-0.09375-0.3125 0-0.5625 0.125-0.75 0.375s-0.28125 0.59375-0.28125 1.0312v2.375h-1.5469v-4.8281h1.5469v0.70312c0.23828-0.28125 0.48828-0.48438 0.75-0.60938 0.25781-0.13281 0.54688-0.20312 0.85938-0.20312 0.5625 0 0.98438 0.17188 1.2656 0.51562 0.28906 0.33594 0.4375 0.82812 0.4375 1.4844z"/>
  </symbol>
  <symbol id="s" overflow="visible">
   <path d="m0.73438-6.7031h1.5469v3.6406l1.7812-1.7656h1.7969l-2.3594 2.2188 2.5469 2.6094h-1.875l-1.8906-2.0156v2.0156h-1.5469z"/>
  </symbol>
  <symbol id="r" overflow="visible">
   <path d="m3.9219-6.7031v1.0156h-0.85938c-0.21875 0-0.37109 0.042969-0.45312 0.125-0.085937 0.074219-0.125 0.20312-0.125 0.39062v0.34375h1.3125v1.1094h-1.3125v3.7188h-1.5469v-3.7188h-0.76562v-1.1094h0.76562v-0.34375c0-0.51953 0.14453-0.90625 0.4375-1.1562 0.28906-0.25 0.74219-0.375 1.3594-0.375z"/>
  </symbol>
  <symbol id="d" overflow="visible">
   <path d="m3.0312-3.8438c-0.33594 0-0.59375 0.125-0.78125 0.375-0.17969 0.24219-0.26562 0.59375-0.26562 1.0625 0 0.46094 0.085937 0.8125 0.26562 1.0625 0.1875 0.24219 0.44531 0.35938 0.78125 0.35938 0.34375 0 0.60156-0.11719 0.78125-0.35938 0.17578-0.25 0.26562-0.60156 0.26562-1.0625 0-0.46875-0.089844-0.82031-0.26562-1.0625-0.17969-0.25-0.4375-0.375-0.78125-0.375zm0-1.0938c0.83203 0 1.4844 0.22656 1.9531 0.67188 0.46875 0.44922 0.70312 1.0703 0.70312 1.8594 0 0.79297-0.23438 1.4141-0.70312 1.8594-0.46875 0.44922-1.1211 0.67188-1.9531 0.67188-0.83594 0-1.4844-0.22266-1.9531-0.67188-0.46875-0.44531-0.70312-1.0664-0.70312-1.8594 0-0.78906 0.23438-1.4102 0.70312-1.8594 0.46875-0.44531 1.1172-0.67188 1.9531-0.67188z"/>
  </symbol>
  <symbol id="q" overflow="visible">
   <path d="m5.2188-4.0312c0.19531-0.28906 0.42578-0.51562 0.6875-0.67188 0.26953-0.15625 0.56641-0.23438 0.89062-0.23438 0.55078 0 0.97266 0.17188 1.2656 0.51562 0.28906 0.33594 0.4375 0.82812 0.4375 1.4844v2.9375h-1.5469v-2.5156-0.10938-0.1875c0-0.33203-0.054687-0.57812-0.15625-0.73438-0.09375-0.15625-0.25781-0.23438-0.48438-0.23438-0.29297 0-0.51562 0.12109-0.67188 0.35938-0.15625 0.24219-0.24219 0.58984-0.25 1.0469v2.375h-1.5469v-2.5156c0-0.53125-0.046875-0.875-0.14062-1.0312s-0.25781-0.23438-0.48438-0.23438c-0.30469 0-0.53906 0.125-0.70312 0.375-0.15625 0.24219-0.23438 0.58594-0.23438 1.0312v2.375h-1.5469v-4.8281h1.5469v0.70312c0.1875-0.26953 0.40625-0.47266 0.65625-0.60938 0.25-0.13281 0.51953-0.20312 0.8125-0.20312 0.33203 0 0.625 0.078125 0.875 0.23438 0.25781 0.15625 0.45703 0.38281 0.59375 0.67188z"/>
  </symbol>
  <symbol id="p" overflow="visible">
   <path d="m5.5938-2.9375v2.9375h-1.5469v-2.2344c0-0.42578-0.011719-0.71875-0.03125-0.875-0.023437-0.15625-0.054687-0.27344-0.09375-0.35938-0.0625-0.09375-0.14844-0.16406-0.25-0.21875-0.10547-0.0625-0.22656-0.09375-0.35938-0.09375-0.3125 0-0.5625 0.125-0.75 0.375s-0.28125 0.59375-0.28125 1.0312v2.375h-1.5469v-6.7031h1.5469v2.5781c0.23828-0.28125 0.48828-0.48438 0.75-0.60938 0.25781-0.13281 0.54688-0.20312 0.85938-0.20312 0.5625 0 0.98438 0.17188 1.2656 0.51562 0.28906 0.33594 0.4375 0.82812 0.4375 1.4844z"/>
  </symbol>
  <symbol id="o" overflow="visible">
   <path d="m0.8125-6.4375h1.8438l2.3438 4.4219v-4.4219h1.5781v6.4375h-1.8594l-2.3281-4.4219v4.4219h-1.5781z"/>
  </symbol>
  <symbol id="n" overflow="visible">
   <path d="m0.6875-1.875v-2.9531h1.5469v0.48438 0.98438 0.79688c0 0.38672 0.007813 0.66797 0.03125 0.84375 0.019531 0.16797 0.050781 0.28906 0.09375 0.35938 0.070313 0.10547 0.15625 0.18359 0.25 0.23438 0.10156 0.054688 0.22266 0.078125 0.35938 0.078125 0.32031 0 0.57031-0.11719 0.75-0.35938 0.1875-0.25 0.28125-0.59375 0.28125-1.0312v-2.3906h1.5469v4.8281h-1.5469v-0.70312c-0.23047 0.28125-0.47656 0.49219-0.73438 0.625-0.26172 0.13281-0.54688 0.20312-0.85938 0.20312-0.5625 0-0.99219-0.17188-1.2812-0.51562-0.29297-0.34375-0.4375-0.83594-0.4375-1.4844z"/>
  </symbol>
  <symbol id="m" overflow="visible">
   <path d="m0.8125-6.4375h2.75c0.82031 0 1.4531 0.18359 1.8906 0.54688 0.4375 0.36719 0.65625 0.88281 0.65625 1.5469 0 0.67969-0.21875 1.1992-0.65625 1.5625-0.4375 0.36719-1.0703 0.54688-1.8906 0.54688h-1.0938v2.2344h-1.6562zm1.6562 1.2031v1.7969h0.92188c0.32031 0 0.56641-0.078125 0.73438-0.23438 0.17578-0.15625 0.26562-0.37891 0.26562-0.67188 0-0.28125-0.089844-0.5-0.26562-0.65625-0.16797-0.15625-0.41406-0.23438-0.73438-0.23438z"/>
  </symbol>
  <symbol id="l" overflow="visible">
   <path d="m4.6406-4.6719v1.25c-0.21094-0.14453-0.42188-0.25-0.64062-0.3125-0.21094-0.070313-0.42188-0.10938-0.64062-0.10938-0.4375 0-0.77734 0.125-1.0156 0.375-0.24219 0.25-0.35938 0.60547-0.35938 1.0625 0 0.44922 0.11719 0.79688 0.35938 1.0469 0.23828 0.25 0.57812 0.375 1.0156 0.375 0.23828 0 0.46094-0.03125 0.67188-0.09375 0.21875-0.070313 0.42188-0.17969 0.60938-0.32812v1.2656c-0.24219 0.085938-0.48438 0.14453-0.73438 0.1875-0.25 0.050781-0.5 0.078125-0.75 0.078125-0.86719 0-1.5469-0.22266-2.0469-0.67188-0.49219-0.44531-0.73438-1.0664-0.73438-1.8594 0-0.80078 0.24219-1.4219 0.73438-1.8594 0.5-0.44531 1.1797-0.67188 2.0469-0.67188 0.25 0 0.5 0.023438 0.75 0.0625 0.25 0.042969 0.49219 0.10938 0.73438 0.20312z"/>
  </symbol>
 </defs>
 <g>
  <path d="m350 0c88.328 0 160.76 72.43 160.76 160.76 0 58.297-31.797 109.53-77.73 137.79 104.23 31.797 181.96 123.66 192.55 236.72 3.5312 28.266-40.633 33.566-44.164 3.5312-12.367-116.59-111.29-208.45-231.42-208.45s-219.05 91.859-231.42 208.45c-1.7656 30.031-47.695 24.73-44.164-3.5312 12.367-113.06 90.094-204.92 194.32-236.72-47.695-28.266-79.496-79.496-79.496-137.79 0-88.328 72.43-160.76 160.76-160.76zm0 44.164c-63.598 0-114.83 52.996-114.83 116.59 0 63.598 51.23 114.83 114.83 114.83s116.59-51.23 116.59-114.83c0-63.598-52.996-116.59-116.59-116.59z"/>
  <use x="74.417969" y="586.5" xlink:href="#t"/>
  <use x="80.898438" y="586.5" xlink:href="#c"/>
  <use x="85.253906" y="586.5" xlink:href="#a"/>
  <use x="91.246094" y="586.5" xlink:href="#e"/>
  <use x="97.207031" y="586.5" xlink:href="#b"/>
  <use x="101.429688" y="586.5" xlink:href="#a"/>
  <use x="107.417969" y="586.5" xlink:href="#k"/>
  <use x="116.816406" y="586.5" xlink:href="#j"/>
  <use x="123.140625" y="586.5" xlink:href="#i"/>
  <use x="131.972656" y="586.5" xlink:href="#h"/>
  <use x="135" y="586.5" xlink:href="#a"/>
  <use x="140.992188" y="586.5" xlink:href="#g"/>
  <use x="144.019531" y="586.5" xlink:href="#e"/>
  <use x="149.976562" y="586.5" xlink:href="#f"/>
  <use x="156.265625" y="586.5" xlink:href="#s"/>
  <use x="74.417969" y="595.332031" xlink:href="#r"/>
  <use x="78.257812" y="595.332031" xlink:href="#c"/>
  <use x="82.613281" y="595.332031" xlink:href="#d"/>
  <use x="88.683594" y="595.332031" xlink:href="#q"/>
  <use x="100.960937" y="595.332031" xlink:href="#b"/>
  <use x="105.183594" y="595.332031" xlink:href="#p"/>
  <use x="111.472656" y="595.332031" xlink:href="#a"/>
  <use x="120.539062" y="595.332031" xlink:href="#o"/>
  <use x="127.929688" y="595.332031" xlink:href="#d"/>
  <use x="134" y="595.332031" xlink:href="#n"/>
  <use x="140.289062" y="595.332031" xlink:href="#f"/>
  <use x="149.652344" y="595.332031" xlink:href="#m"/>
  <use x="156.125" y="595.332031" xlink:href="#c"/>
  <use x="160.480469" y="595.332031" xlink:href="#d"/>
  <use x="166.546875" y="595.332031" xlink:href="#g"/>
  <use x="169.574219" y="595.332031" xlink:href="#a"/>
  <use x="175.566406" y="595.332031" xlink:href="#l"/>
  <use x="180.800781" y="595.332031" xlink:href="#b"/>
 </g>
</svg>
