<?xml version="1.0" encoding="UTF-8"?>
<svg fill="#5F6368" width="700pt" height="700pt" version="1.1" viewBox="0 0 700 700" xmlns="http://www.w3.org/2000/svg" xmlns:xlink="http://www.w3.org/1999/xlink">
 <g>
  <path d="m417.2 240.8h145.6v-145.6l-50.152 50.371c-3.8008-4.4336-7.9453-8.7656-12.086-12.977-83.664-83.191-218.66-82.621-301.52 1.2695-82.965 83.887-82.387 219.34 1.2773 302.52 83.562 83.184 218.55 82.617 301.51-1.2773 0 0 27.707-32.848 36.883-50.379l-46.082-20.305c-6.7422 11.938-26.477 35.191-26.477 35.191-63.438 64.211-166.58 64.641-230.45 0.96875-63.98-63.539-64.418-167.14-0.97266-231.22 63.332-64.211 166.48-64.645 230.46-0.97266 4.25 4.207 8.1602 8.6523 11.855 13.203z" fill-rule="evenodd"/>
 </g>
</svg>
